<svg xmlns="http://www.w3.org/2000/svg" id="Ebene_1" data-name="Ebene 1" width="135.1" height="109.44" viewBox="0 0 135.1 109.44">
  <path d="M104.25,67.96c-5.42,14.79-19.65,25.38-36.3,25.38s-30.88-10.59-36.3-25.38h-2.49c5.53,16.11,20.82,27.72,38.79,27.72s33.26-11.62,38.79-27.72h-2.49ZM67.96,16.04c16.06,0,29.86,9.84,35.69,23.81h2.52c-5.96-15.28-20.84-26.15-38.21-26.15s-32.26,10.87-38.21,26.15h2.52c5.83-13.97,19.63-23.81,35.69-23.81Z" style="fill: #7f6f49;"/>
  <g>
    <path d="M39.15,70.82l4.67,.47-1.52-2.36,.66-.43,2.05,3.18-.66,.43-4.67-.47,1.62,2.52-.66,.43-2.15-3.34,.66-.43Z" style="fill: #7f6f49;"/>
    <path d="M46.45,73.45l2.6,2.65-.56,.55-2.02-2.06-.96,.95,1.6,1.63-.56,.55-1.6-1.63-1.1,1.08,2.07,2.11-.56,.55-2.65-2.7,3.74-3.67Z" style="fill: #7f6f49;"/>
    <path d="M50.82,77.53l1.82,1.19c.85,.56,1.05,1.54,.53,2.32-.64,.97-1.66,.7-1.66,.7l-.16,2.41-.78-.52,.16-2.23-1.03-.68-1.07,1.63-.69-.45,2.88-4.38Zm.42,3.32c.44,.29,.96,.18,1.25-.26s.18-.96-.26-1.25l-1.13-.74-.99,1.5,1.13,.74Z" style="fill: #7f6f49;"/>
    <path d="M56.72,81.73l-1.46-.59,.29-.73,3.69,1.48-.29,.73-1.46-.59-1.66,4.14-.77-.31,1.66-4.14Z" style="fill: #7f6f49;"/>
    <path d="M61.26,82.39l.8,.18-1.15,5.11-.8-.18,1.15-5.11Z" style="fill: #7f6f49;"/>
    <path d="M64.71,83.04l3.66,.21-.05,.79-2.84-.16-.09,1.5,2.24,.13-.04,.79-2.24-.13-.12,2.17-.82-.05,.3-5.23Z" style="fill: #7f6f49;"/>
    <path d="M70.57,83.06l.82-.09,.55,5.21-.82,.09-.55-5.21Z" style="fill: #7f6f49;"/>
    <path d="M74.84,86.98l1.84-4.32-2.71,.75-.21-.76,3.65-1.01,.21,.76-1.84,4.32,2.89-.8,.21,.76-3.83,1.06-.21-.76Z" style="fill: #7f6f49;"/>
    <path d="M79.57,80.71l.75-.35,2.21,4.75-.75,.35-2.21-4.75Z" style="fill: #7f6f49;"/>
    <path d="M82.7,79.12l3.06-2.1,.45,.65-2.38,1.63,.76,1.11,1.88-1.29,.45,.65-1.88,1.29,.87,1.27,2.44-1.68,.45,.65-3.12,2.14-2.97-4.32Z" style="fill: #7f6f49;"/>
    <path d="M87.46,75.53l1.49-1.58c.69-.74,1.7-.77,2.38-.13,.85,.8,.4,1.76,.4,1.76l2.35,.57-.64,.68-2.16-.54-.85,.9,1.42,1.33-.56,.6-3.82-3.59Zm3.35,.16c.36-.38,.34-.91-.04-1.27-.38-.36-.91-.34-1.27,.04l-.92,.98,1.31,1.23,.92-.98Z" style="fill: #7f6f49;"/>
    <path d="M92.63,70.44l-.83,1.34-.67-.41,2.09-3.38,.67,.41-.83,1.34,3.79,2.35-.43,.7-3.79-2.35Z" style="fill: #7f6f49;"/>
  </g>
  <g>
    <path d="M41.74,32.6l.62-.59,3.63,1.97-1.81-3.7,.6-.57,3.61,2-1.79-3.73,.62-.59,2.36,4.99-.6,.57-3.61-2,1.81,3.7-.6,.57-4.86-2.62Z" style="fill: #7f6f49;"/>
    <path d="M50.77,25.26l.72-.41,2.59,4.56-.72,.41-2.59-4.56Z" style="fill: #7f6f49;"/>
    <path d="M55.58,22.88l2.07-.68c.96-.31,1.86,.14,2.15,1.03,.36,1.1-.49,1.74-.49,1.74l1.78,1.62-.89,.29-1.64-1.51-1.17,.38,.61,1.85-.78,.26-1.63-4.98Zm2.86,1.74c.5-.16,.74-.64,.57-1.13s-.64-.74-1.13-.57l-1.28,.42,.56,1.71,1.28-.42Z" style="fill: #7f6f49;"/>
    <path d="M67.82,24.56s.39,.62,1.29,.65c.67,.03,1.06-.33,1.08-.74,.05-1.16-2.75-.56-2.68-2.51,.03-.79,.73-1.43,1.86-1.39,1.09,.04,1.62,.74,1.62,.74l-.58,.54s-.36-.5-1.07-.53c-.64-.03-.99,.3-1,.67-.05,1.16,2.75,.56,2.68,2.51-.03,.82-.77,1.51-1.93,1.46-1.27-.05-1.84-.86-1.84-.86l.58-.54Z" style="fill: #7f6f49;"/>
    <path d="M75.14,21.37l.8,.18-1.16,5.11-.8-.18,1.16-5.11Z" style="fill: #7f6f49;"/>
    <path d="M80.34,22.86l.68,.32,.98,4.72,1.63-3.5,.75,.35-2.22,4.75-.68-.32-.98-4.72-1.63,3.5-.75-.35,2.22-4.75Z" style="fill: #7f6f49;"/>
    <path d="M88.42,27.36l1.34,1.14c1.17,.99,1.31,2.68,.39,3.77-.92,1.09-2.61,1.23-3.78,.23l-1.34-1.14,3.39-4Zm-1.56,4.57c.83,.7,1.99,.61,2.67-.19,.68-.8,.58-1.96-.25-2.67l-.71-.61-2.42,2.86,.71,.61Z" style="fill: #7f6f49;"/>
  </g>
  <path d="M34.08,61.35l-3.49-3.49c1.3-1.55,2.07-3.52,2.07-5.66,0-4.92-4.06-8.97-9.34-8.97-.88,0-1.71,.12-2.51,.33-4.01,1.05-6.84,4.54-6.84,8.65,0,4.92,4.06,8.98,9.34,8.98,1.26,0,2.45-.24,3.54-.66l4.04,4.04,.43-2.75,2.77-.45Zm-16.3-9.15c0-2.84,2.1-5.15,4.85-5.49,.22-.03,.45-.05,.68-.05,3.07,0,5.53,2.46,5.53,5.53,0,1.26-.42,2.41-1.12,3.34-1.01,1.33-2.6,2.19-4.41,2.19-3.07,0-5.53-2.46-5.53-5.53Z" style="fill: #7f6f49;"/>
  <g>
    <path d="M34.56,48.84h3.32v6.76c0,1.48,.86,2.34,2.21,2.34,1.47,0,2.58-1.11,2.58-2.7v-6.39h3.32v12.05h-3.32v-1.72h-.12s-1.23,1.97-3.57,1.97c-2.46,0-4.43-1.97-4.43-5.04v-7.26Z" style="fill: #7f6f49;"/>
    <path d="M55.47,59.41h-.12s-1.23,1.72-3.57,1.72c-2.21,0-3.69-1.48-3.69-3.44s1.35-3.47,3.57-3.86l3.81-.69c-.12-.86-.86-1.6-2.09-1.6-1.72,0-2.7,1.35-2.7,1.35l-1.97-1.97s1.72-2.34,4.92-2.34,5.16,2.09,5.16,4.79v7.5h-3.32v-1.47Zm0-3.93l-2.7,.49c-.86,.15-1.35,.61-1.35,1.23,0,.74,.49,1.23,1.48,1.23,1.47,0,2.58-1.11,2.58-2.71v-.25Z" style="fill: #7f6f49;"/>
    <path d="M61.12,43.68h3.32v17.21h-3.32v-17.21Z" style="fill: #7f6f49;"/>
    <path d="M68.94,43.55c1.03,0,1.89,.86,1.89,1.84s-.86,1.84-1.92,1.84-1.89-.86-1.89-1.84,.86-1.84,1.92-1.84Zm-1.67,5.29h3.32v12.05h-3.32v-12.05Z" style="fill: #7f6f49;"/>
    <path d="M89.53,57.82s-2.46,3.44-7.38,3.44c-5.29,0-9.34-4.06-9.34-8.98s4.06-8.98,9.34-8.98c4.79,0,7.25,3.44,7.25,3.44l-2.46,2.46s-1.72-2.46-4.79-2.46-5.53,2.46-5.53,5.53,2.46,5.53,5.53,5.53,4.92-2.46,4.92-2.46l2.46,2.46Z" style="fill: #7f6f49;"/>
    <path d="M101.95,59.17s-1.84,1.97-5.16,1.97c-3.57,0-6.39-2.83-6.39-6.27s2.83-6.27,6.27-6.27,6.02,2.7,6.02,6.02c0,.86-.12,1.48-.12,1.48h-8.73c.37,1.11,1.35,2.09,3.2,2.09,2.09,0,3.2-1.35,3.2-1.35l1.72,2.34Zm-2.7-5.53c-.37-1.11-1.35-2.09-2.71-2.09s-2.34,.98-2.7,2.09h5.41Z" style="fill: #7f6f49;"/>
    <path d="M104.41,48.84h3.32v1.72h.12s1.23-1.97,3.57-1.97h.25v3.57s-.37-.12-1.11-.12c-1.6,0-2.83,1.23-2.83,3.2v5.66h-3.32v-12.05Z" style="fill: #7f6f49;"/>
    <path d="M115.23,52.16h-2.09v-3.07h1.11c.86,0,1.35-.49,1.35-1.47v-2.21h2.95v3.69h2.7v3.07h-2.7v4.06c0,1.11,.61,1.72,1.6,1.72,.74,0,1.35-.25,1.35-.25v3.07s-.98,.37-2.21,.37c-2.46,0-4.06-1.6-4.06-4.43v-4.55Z" style="fill: #7f6f49;"/>
  </g>
</svg>