<svg viewBox="0 0 96.37795 96.37795" xmlns="http://www.w3.org/2000/svg"><g fill="#15292d"><path d="m12.33284 47.95655c-2.54541.17676-1.93506 3.88282-3.50391 3.9917-.58154.04053-1.07861-.4541-1.13672-1.28808-.043-.61426.21289-1.21631.61914-1.24463l.36182-.0249-.07031-1.00928-.63623.04394c-1.05323.07325-1.33008 1.48145-1.273 2.30469a2.24292 2.24292 0 0 0 2.24609 2.335c2.41357-.168 1.90088-3.8916 3.5249-4.00439a1.20871 1.20871 0 0 1 1.24414 1.24756 2.82471 2.82471 0 0 1 -.79736 2.00683l.82373.59278a3.47043 3.47043 0 0 0 .97363-2.647 2.25977 2.25977 0 0 0 -2.37592-2.30422z" fill-rule="evenodd"/><path d="m13.28108 42.29152a2.506 2.506 0 0 1 .604 1.793 1.8939 1.8939 0 0 1 -2.15674 1.76319 1.88005 1.88005 0 0 1 -1.80371-2.083c.03858-.40527.27295-1.01318.66748-.97607l.30664.02929.09131-.96435-.56982-.05371c-.9419-.08936-1.3418 1.21045-1.40479 1.87841a2.85351 2.85351 0 0 0 2.6211 3.25538 2.84117 2.84117 0 0 0 3.1831-2.68311 3.06489 3.06489 0 0 0 -.73926-2.34717z" fill-rule="evenodd"/><path d="m15.59846 35.91066a.21535.21535 0 0 1 -.29834.168l-2.31885-.64843c-1.36621-.38184-2.21435-.00244-2.5664 1.25781a2.26324 2.26324 0 0 0 .64013 2.3252l-.00586.02148a4.597 4.597 0 0 0 -.439-.14551l-2.08643-.58349c-.45507-.127-.7124.01806-.8457.49462l-.28418 1.01661.87891.2456.12109-.43408a.2155.2155 0 0 1 .29834-.168l6.36426 1.77881.28711-1.02686-2.50977-.70166a2.26185 2.26185 0 0 1 -.68261-.29394 1.83126 1.83126 0 0 1 -.8501-2.064c.23974-.85791.877-.85107 1.6289-.64062l2.52051.7041a.603.603 0 0 0 .86719-.48828l.28125-1.00586-.87891-.24559z" fill-rule="evenodd"/><path d="m16.50325 25.86671.07375-.13571-.80323-.43408-.314.58056a.70522.70522 0 0 0 .12453 1.01752l2.44629 2.43652a4.45366 4.45366 0 0 0 .45947.39844l-.01025.01953a5.7985 5.7985 0 0 0 -.59082-.15674l-3.99024-.78369-.46582.86133 2.84424 2.90186c.20947.21338.44922.418.44922.418l-.01074.01953a4.45233 4.45233 0 0 0 -.585-.16651l-3.38281-.70507a.69491.69491 0 0 0 -.915.44335l-.31934.58985.80322.43457.07325-.13574c.08349-.15479.1748-.23047.35546-.19483l4.59473.82227.57568-1.064-2.59961-2.707c-.20947-.21338-.459-.42334-.459-.42334l.01074-.01953s.312.09375.605.15234l3.69385.68555.57031-1.05469-3.20263-3.396a.29718.29718 0 0 1 -.03125-.40429z" fill-rule="evenodd"/><path d="m22.83137 23.502a2.56073 2.56073 0 0 1 -.56933 1.65821 1.865 1.865 0 0 1 -2.65821.24072l2.64649-3.08008s-.2041-.21875-.3125-.312a2.36714 2.36714 0 0 0 -3.54151.12012 2.73758 2.73758 0 0 0 .39014 4.02051 2.83852 2.83852 0 0 0 4.14111-.34473 3.26132 3.26132 0 0 0 .78076-2.15869zm-3.7998-.8125a1.32058 1.32058 0 0 1 1.93017-.06835l-1.92187 2.23681a1.60356 1.60356 0 0 1 -.0083-2.1685z" fill-rule="evenodd"/><path d="m25.5594 21.70362a.21509.21509 0 0 1 -.3418-.01709l-2.48926-2.751a.60368.60368 0 0 0 -.99511-.04981l-.77539.70166.61328.67774.33447-.30322a.21592.21592 0 0 1 .34229.01757l2.48876 2.751a.60392.60392 0 0 0 .99512.0498l.77539-.70166-.61279-.67773z" fill-rule="evenodd"/><path d="m20.26057 17.00971h.95776v1.11195h-.95776z" transform="matrix(.74156698 -.67087884 .67087884 .74156698 -6.42469 18.45321)"/><g fill-rule="evenodd"><path d="m30.01448 17.61329-.79248.55713.21533.30615a.22013.22013 0 0 1 -.0586.33741l-1.45849 1.02588a4.85141 4.85141 0 0 0 -.42822.32861l-.0127-.01807s.05566-.32226.08643-.68017l.3081-4.53614-.35449-.50439-3.25879 2.29248a.60341.60341 0 0 0 -.1709.98144l.47461.6753.80127-.564-.21533-.30615a.21971.21971 0 0 1 .05908-.33691l1.24219-.874a4.85346 4.85346 0 0 0 .42822-.32861l.0127.01807s-.05323.30713-.08057.68945l-.30518 4.521.3545.5039 3.457-2.43164a.60345.60345 0 0 0 .1709-.98144z"/><path d="m33.93342 17.5005a3.25552 3.25552 0 0 0 1.57764-1.66406l-.74561-.48291a2.55818 2.55818 0 0 1 -1.18359 1.2915 1.86362 1.86362 0 0 1 -2.53027-.84277l3.65429-1.76221s-.09912-.28174-.16162-.41064a2.36483 2.36483 0 0 0 -3.29053-1.30567 2.73513 2.73513 0 0 0 -1.25 3.8374 2.83607 2.83607 0 0 0 3.92969 1.33936zm-2.32178-4.40967a1.31906 1.31906 0 0 1 1.79444.70947l-2.65381 1.27979a1.60271 1.60271 0 0 1 .85937-1.98926z"/><path d="m35.37385 11.71486a.2154.2154 0 0 1 .30322.15869l1.31543 4.21 1.01856-.31836-.6792-2.17285a3.38144 3.38144 0 0 1 -.17236-.99463 1.68825 1.68825 0 0 1 1.10009-1.71533 1.55186 1.55186 0 0 1 .31446-.06348l-.31494-1.00781a2.14584 2.14584 0 0 0 -.2793.064 1.91288 1.91288 0 0 0 -1.24707 1.91065l-.021.00683a3.14543 3.14543 0 0 0 -.09375-.374l-.105-.33594c-.13428-.43066-.41406-.55078-.876-.40625l-.96582.30176.27246.87158z"/><path d="m42.53547 7.66407a.45355.45355 0 0 1 .48975.24366l2.16992 3.0205.2207 3.37891 1.09717-.07178-.2207-3.3789 1.74707-3.27637a.46751.46751 0 0 1 .46435-.30615l.2085-.01367-.06152-.94336-.50489.0332a.97258.97258 0 0 0 -1.00341.66016l-1.03516 2.02929c-.23535.44483-.415.89746-.415.89746l-.022.00147s-.248-.42481-.52832-.83594l-1.30176-1.876a.96556.96556 0 0 0 -1.081-.52441l-.5044.03271.06152.94385z"/><path d="m51.49885 14.4878a2.91417 2.91417 0 1 0 -2.69185-3.20068 2.91336 2.91336 0 0 0 2.69185 3.20068zm-1.60885-3.09521a1.90851 1.90851 0 1 1 3.79638.37061 1.90941 1.90941 0 1 1 -3.79638-.37061z"/><path d="m60.09846 16.0171 1.18945-4.02783a.2138.2138 0 0 1 .294-.14209l.42187.12451.25831-.87549-.99122-.29248a.52694.52694 0 0 0 -.749.36328l-.0498.169-.021-.00635a1.85053 1.85053 0 0 0 -1.4624-1.33691c-1.48682-.439-2.67676.44726-3.12842 1.97656a2.56222 2.56222 0 0 0 1.57666 3.43408 1.77753 1.77753 0 0 0 1.832-.3418l.021.00635a3.22874 3.22874 0 0 0 -.12061.33106l-.106.3584a1.51478 1.51478 0 0 1 -2.126.98877 3.50791 3.50791 0 0 1 -1.34912-.78809l-.59082.71973a4.38073 4.38073 0 0 0 1.69336.98144 2.49921 2.49921 0 0 0 3.40774-1.64214zm-2.19971-1.44043a1.68485 1.68485 0 0 1 -.98828-2.3208c.32032-1.08594 1.04688-1.605 1.97461-1.331.82276.24267 1.38965.8457.979 2.23779-.41108 1.39155-1.22708 1.63227-1.96533 1.41401z"/><path d="m65.66584 12.57179c-.48144-.2417-1.7788-.74463-2.188.0708l-.2461.4917.894.44824.14307-.28467c.1626-.3247.772-.09277 1.00781.02588.77637.38916.94287.86621.50391 1.74072l-.02441.04932-.21631-.1084c-.835-.41894-3.04639-1.40527-3.84961.19678a1.73973 1.73973 0 0 0 .93115 2.36084 1.90121 1.90121 0 0 0 2.0752-.189l.01953.00977a2.35112 2.35112 0 0 0 -.16748.28467.58781.58781 0 0 0 .333.88086l.89405.44824.40918-.81543-.40278-.20211a.21536.21536 0 0 1 -.10791-.32471l1.06006-2.11279c.5518-1.10059.54346-2.16261-1.06836-2.97071zm-.33349 3.41162a1.6856 1.6856 0 0 1 -2.12012.9165.92578.92578 0 0 1 -.53418-1.26416c.458-.91357 1.7749-.30224 2.49219.05713l.24609.12354z"/><path d="m72.86311 18.3921.08887.06445.53564-.73974-.41846-.30322a.73553.73553 0 0 0 -1.01562-.04248l-2.84033 1.896a6.75008 6.75008 0 0 0 -.58643.47168l-.01806-.01269a6.75927 6.75927 0 0 0 .26562-.70459l.90723-3.29639a.72968.72968 0 0 0 -.35743-.95166l-.44531-.32275-.53564.73974.08886.06445a.315.315 0 0 1 .14747.37842l-1.21143 4.59815.998.72265 3.97368-2.59712a.33312.33312 0 0 1 .42334.0351z"/><path d="m73.02961 21.292 2.84864 2.89405s.23535-.18506.33691-.28565a2.36778 2.36778 0 0 0 .17578-3.53955 2.73783 2.73783 0 0 0 -4.03955.0542 2.83876 2.83876 0 0 0 -.00146 4.15576 3.26089 3.26089 0 0 0 2.08593.958l.2168-.8623a2.56168 2.56168 0 0 1 -1.60547-.70508 1.86533 1.86533 0 0 1 -.01758-2.66943zm2.74952-.34423a1.32 1.32 0 0 1 -.09278 1.92919l-2.06935-2.10205a1.60431 1.60431 0 0 1 2.16213.17286z"/><path d="m78.02961 26.02394a1.68918 1.68918 0 0 1 1.98047.4834 1.59491 1.59491 0 0 1 .16211.27685l.85108-.62549a2.16138 2.16138 0 0 0 -.15137-.24365 1.91449 1.91449 0 0 0 -2.21289-.55859l-.01319-.01758a3.23472 3.23472 0 0 0 .32325-.21045l.28369-.2085c.36377-.26709.38623-.57031.09961-.96045l-.59912-.81543-.73584.54053.26709.36328a.21541.21541 0 0 1 -.05176.33838l-3.55518 2.61276.63233.85987 1.835-1.34863a3.38851 3.38851 0 0 1 .88472-.4863z"/><path d="m81.84846 33.4629c1.52832-.80469 2.13867-2.1958 1.44141-3.51953a2.00248 2.00248 0 0 0 -1.64356-1.16162l-.01025-.01953a4.61 4.61 0 0 0 .41894-.1958l1.60645-.84571a.60359.60359 0 0 0 .29492-.95117l-.49219-.93457-.8081.4253.21045.39941a.21516.21516 0 0 1 -.10156.32666l-5.85059 3.08154.47656.90528.34082-.1792a3.74372 3.74372 0 0 0 .35938-.21436l.01025.01953a2.006 2.006 0 0 0 -.01221 1.9834 2.60931 2.60931 0 0 0 3.75928.88037zm-3.023-1.44189a1.74792 1.74792 0 0 1 1.019-2.31543c1.25586-.66113 2.13086-.25147 2.51514.47851.436.82764.04736 1.76612-1.02344 2.33008a1.73654 1.73654 0 0 1 -2.51065-.49317z"/><path d="m81.92073 39.66945a.21539.21539 0 0 1 .15771-.30372l2.25391-.71191c1.17431-.37061 1.93017-1.1167 1.38672-2.83594-.16211-.51367-.70508-1.79492-1.5752-1.52l-.52392.16553.30127.9541.30371-.09619c.34619-.10937.60449.48926.68408.74121.26123.82813.03515 1.27979-.89795 1.57471l-.05225.0166-.07275-.231c-.28174-.89111-1.11475-3.16406-2.82373-2.62451a1.7402 1.7402 0 0 0 -1.04444 2.313 1.9 1.9 0 0 0 1.58111 1.35694l.00684.021a2.40628 2.40628 0 0 0 -.32129.07812c-.37745.11914-.54834.38086-.39942.85254l.30127.9541.87012-.2749zm-1.01563-2.5962a.926.926 0 0 1 .53418-1.26416c.9751-.30761 1.4541 1.063 1.6958 1.82813l.083.26172-.17822.05664a1.68562 1.68562 0 0 1 -2.13476-.88233z"/><path d="m84.81233 41.91359a1.80334 1.80334 0 0 1 1.57275 1.57519c.11084.88379-.48047 1.11328-1.25537 1.21094l-2.59668.32666c-.49072.062-.67187.29541-.61035.78613l.13184 1.04736.90576-.11376-.05615-.44727a.21528.21528 0 0 1 .20947-.27051l2.38965-.30078c1.40722-.17676 2.042-.85547 1.87744-2.16455a2.26461 2.26461 0 0 0 -1.52637-1.91357l-.00293-.022a2.34961 2.34961 0 0 0 .31934-.01806l.207-.02588c.40381-.05078.582-.30615.523-.77539l-.12744-1.01465-.90577.11426.05664.44726a.21525.21525 0 0 1 -.21.27l-4.375.55078.1333 1.0586 2.58545-.32569a2.28875 2.28875 0 0 1 .75442.00493z"/><path d="m88.61311 51.603a.21535.21535 0 0 1 -.25684.22607l-1.39306-.08935a3.19347 3.19347 0 0 0 -.37451-.002l.00146-.022a1.85742 1.85742 0 0 0 .96484-1.65674c.09424-1.46972-.98-2.58545-2.74658-2.69824-1.72217-.11035-2.96728.75733-3.06347 2.26074a1.96728 1.96728 0 0 0 .89257 1.88575l-.00146.022s-.11963-.019-.28418-.0293c-.373-.02392-.60547.15967-.63623.64209l-.06543 1.02051.91064.0581.02881-.4497a.21537.21537 0 0 1 .25684-.22608l5.8916.377c.49365.03173.71533-.16358.74707-.65723l.06738-1.05322-.91064-.05811zm-4.06592.01514c-1.415-.09034-1.94678-.90674-1.894-1.7295.05859-.92138.87939-1.519 2.08594-1.44189 1.26171.081 1.93945.85156 1.88427 1.71826-.0684 1.06399-1.0889 1.51664-2.07621 1.45317z"/><path d="m63.72877 74.05812c-.665 0-1.2168.542-1.2168 1.50195 0 .92236.48487 1.521 1.19825 1.521.627 0 1.21679-.45606 1.21679-1.53028-.00001-.75097-.39013-1.49267-1.19824-1.49267z"/><path d="m46.77028 74.04884c-.73194 0-1.13135.53223-1.13135 1.3501 0 .8457.42822 1.47314 1.20752 1.47314.58008 0 1.13134-.33252 1.13134-1.42578-0-1.10303-.55126-1.39746-1.20751-1.39746z"/><path d="m58.33961 73.95362a1.16175 1.16175 0 0 0 -1.188.9795h2.10059a.94124.94124 0 0 0 -.91259-.9795z"/><path d="m48.189.91291a47.27607 47.27607 0 1 0 47.276 47.27609 47.3296 47.3296 0 0 0 -47.276-47.27609zm-10.56814 77.07148h-1.07422c-.44677 0-.59863-.18994-.63672-.64649l-.228-3.0039a9.655 9.655 0 0 1 -.00977-1.0459h-.019s-.19971.66552-.37061 1.0459l-1.12164 2.49072h-1.00781l-1.12158-2.49072a10.84806 10.84806 0 0 1 -.3711-1.05518h-.01855a9.836 9.836 0 0 1 -.00977 1.05518l-.21875 3.0039c-.03808.45655-.19971.64649-.64648.64649h-1.07422v-1.05518h.29492c.1333 0 .19971-.07617.209-.209l.4375-5.48536h1.293l1.3877 3.21338c.16162.38965.33252.90284.33252.90284h.019s.17139-.51319.333-.90284l1.38772-3.21336h1.293l.4375 5.48536c.00928.13281.07569.209.209.209h.29443zm2.86084 0h-1.15039c-.44678 0-.63672-.18994-.63672-.64649v-2.96582a.18615.18615 0 0 0 -.20947-.209h-.37988v-1.02684h1.1499c.44678 0 .63721.19971.63721.64649v2.97558a.19024.19024 0 0 0 .209.209h.38037zm-1.73-5.63721v-1.11231h1.04541v1.11231zm5.11377 5.65625a2.23244 2.23244 0 0 1 -.37061.02832 1.77132 1.77132 0 0 1 -2.01513-1.8252v-2.11035h-.62744v-.96h.65576v-1.3212h1.17871v1.32129h1.103v.96h-1.103v1.9585a.86127.86127 0 0 0 .96045.9126 1.1046 1.1046 0 0 0 .21826-.019zm5.86133-3.84033h-.37061a.1854.1854 0 0 0 -.20947.18994v3.33642a2.27528 2.27528 0 0 1 -2.55713 2.291 3.86133 3.86133 0 0 1 -1.72021-.418l.3706-.95068a3.12781 3.12781 0 0 0 1.34033.32324c.73194 0 1.36866-.314 1.36866-1.18848v-.228c0-.11426.00976-.25684.00976-.25684h-.019a1.50234 1.50234 0 0 1 -1.3501.62744 2.22548 2.22548 0 0 1 -2.17676-2.45264 2.16685 2.16685 0 0 1 2.14842-2.4145 1.63868 1.63868 0 0 1 1.49268.68457h.01855v-.12357c0-.21875.15235-.44678.53272-.44678h1.12158zm2.74365 3.82129h-1.14109c-.45606 0-.64649-.18994-.64649-.64649v-4.86719a.18581.18581 0 0 0 -.209-.209h-.38037v-1.02684h1.15039c.44678 0 .64648.19971.64648.64649v4.87695a.19024.19024 0 0 0 .209.209h.37109zm2.8584 0h-1.15037c-.44678 0-.63672-.18994-.63672-.64649v-2.96582a.18615.18615 0 0 0 -.20947-.209h-.37989v-1.02684h1.14991c.44677 0 .6372.19971.6372.64649v2.97558a.19025.19025 0 0 0 .209.209h.38037zm-1.73-5.63721v-1.11231h1.04545v1.11231zm6.86084 3.42236h-3.34615a1.39428 1.39428 0 0 0 1.45459 1.30225 2.204 2.204 0 0 0 1.35937-.542l.50391.83691a2.95 2.95 0 0 1 -1.94922.73193 2.48446 2.48446 0 0 1 -2.60449-2.53857 2.39138 2.39138 0 0 1 2.46191-2.53806 2.10153 2.10153 0 0 1 2.14844 2.30079c0 .14255-.02832.44675-.02832.44675zm6.22558 2.21485h-1.11227c-.437 0-.59863-.209-.59863-.49414v-.18067h-.019a1.66709 1.66709 0 0 1 -1.51171.78906c-1.31153 0-2.15772-1.03613-2.15772-2.53857a2.26909 2.26909 0 0 1 2.20553-2.53807 1.55787 1.55787 0 0 1 1.39746.58936h.019s-.00977-.12354-.00977-.28516v-.85547a.186.186 0 0 0 -.209-.209h-.38037v-1.02686h1.15039c.44678 0 .64648.19971.64648.64649v4.87695a.19.19 0 0 0 .209.209h.3706zm-.76715-20.74005c.0141.07946.0279.15893.02991.17608l.02686.24268c.00634.06006.01074.1206.01123.18164l.00293.23828a1.79086 1.79086 0 0 1 -.01075.2334l-.08349.59179a1.978 1.978 0 0 1 -.0542.23145l-.0669.22021a1.84518 1.84518 0 0 1 -.24853.51856l-.1543.2251c-.02832.04248-.06347.08838-.09863.13183l-.187.2251a1.93533 1.93533 0 0 1 -.13086.14307l-.51416.46972c-.05811.04834-.11035.08887-.16553.12647-.002.00146-.32519.21826-.35547.23584-.00146.001-.3374.19287-.3706.20947l-1.03516.43115c-.02588.0083-.47314.13965-.50732.14746l-1.42139.24122-1.14893.06054-1.55078-.062c-.01611-.00146-.79345-.084-.84668-.09277l-1.87744-.394-1.54248-.53173-2.58786-1.1089-2.82275-1.34882-2.71094 1.30482-2.99658 1.27539-1.85694.57325-.36718.07275a1.41627 1.41627 0 0 1 -.189.04l-.49512.07812c-.05957.00879-.689.07862-.689.07862l-.87451.06006c-.01905.001-.69532.0166-.70459.0166l-2.10742-.13721-1.1294-.23389c-.04541-.01123-.42871-.12939-.42871-.12939l-.3418-.1167c-.05566-.01953-.10937-.04053-.16113-.064l-.57568-.26661c-.05176-.02539-.09864-.05029-.144-.07666l-.25537-.15088c-.04638-.02783-.09082-.05615-.13427-.0874l-.53663-.40722a1.70131 1.70131 0 0 1 -.17041-.1543s-.27-.2793-.29443-.30908l-.17285-.20508a1.66947 1.66947 0 0 1 -.11084-.14649l-.14551-.21a1.8809 1.8809 0 0 1 -.25195-.52392l-.06934-.23047a1.85974 1.85974 0 0 1 -.04834-.19971l-.04492-.23974c-.01025-.05371-.01807-.11231-.02393-.17188l-.02246-.23877c-.00586-.06348-.0083-.12842-.00781-.19287l.002-.23633c.00049-.06054.0044-.11914.01026-.17676.00043-.00335.02765-.24249.03985-.33721h-26.3785a45.27607 45.27607 0 1 1 88.73718 0z"/><path d="m48.027 19.654-.351.044-.333.083-.314.109-.306.139-.286.169-.276.193-.26.22-.237.24-.223.267-.204.295-.184.305-.17.328-.139.346-.13.368-.101.379-.075.397-.066.417-.033.422-.012.436.009.374.027.372.042.37.063.369.073.366.095.363.103.358.121.353.133.333.145.328.162.322.173.306.185.293.191.273.21.26.221.236.229.225.233.193.252.178.255.15.263.121.28.094.286.058.297.03h.015l.287-.03.282-.058.274-.097.258-.121.265-.155.239-.181.235-.202.227-.227.211-.242.202-.262.188-.284.179-.292.172-.316.153-.319.142-.33.128-.346.119-.358.101-.358.09-.364.074-.367.058-.376.038-.372.026-.378.009-.363-.011-.44-.035-.424-.054-.402-.078-.398-.101-.375-.117-.36-.141-.343-.16-.327-.178-.3-.199-.287-.215-.26-.238-.235-.257-.213-.263-.194-.287-.164-.302-.133-.317-.11-.327-.075-.343-.044-.349-.018z"/><path d="m49.10926 56.54615.19257-.09466.22443-.10144.24029-.10425.251-.117.26331-.11792.28234-.12519.29242-.13122.30738-.13575.31585-.13848.32337-.13941.33093-.14581.33344-.14533.34442-.14672.343-.15131.34668-.14673.35791-.14441.351-.14722.35058-.14349.34986-.1394.34881-.14032.3451-.133.33453-.13257.335-.1289.32086-.117.31287-.11932.30627-.10419.299-.09875.2818-.09369.27124-.08728.25415-.07636.24567-.06488.22327-.0553.20843-.0448.19354-.03521.17872-.01782.01489-.00135-.00319-.00507-.04773-.07038-.04046-.03607-.04138-.03064-.0553-.02881-.05323-.02331-.03613-.00641-.0448-.00867-.03174-.00323h-.00549l-.02972.00323-.05963.00318-.08069.00549-.09253-.00549-.10742-.01185-.11908-.02655-.12134-.04339-.11585-.07453-.11706-.08728-.1106-.11792-.085-.13623-.08728-.15222-.099-.12427-.08179-.07543-.11065-.07679-.06806-.0393-.12133-.04023-.07868-.0224-.08179-.0119-.09686-.005-.07452.005-.07978.00867-.0393.00323v.00409l-.05414.01191v-.00324l-.014.00324-.0105.0064h-.00324l-.01074-.05212-.04248-.12024-.04889.053-.25006.25732-.25592.25232-.24775.24042-.25323.23175-.242.21387-.24616.20709-.23242.18646-.22809.17322-.21869.15314-.2077.13714-.20117.11292-.1828.09686-.1778.06769-.14673.04614-.19153.05622-.15631.06079-.16681.07861-.175.08594v-.00324l-.14948.08826-.14563.09277-.14691.10193-.12116.08637-.11584.09552-.09253.08-.09467.08045-.064.0553-.04413.04571-.03039.03015-.01166.01056-.0105.01276-.02448.02331-.06012.0608-.075.07128-.09411.08185-.11658.09961-.13708.10468-.16071.10742-.17664.11566-.19452.1106-.21044.10968-.233.10968-.252.09558-.275.0841-.28553.07538-.30743.05121-.3244.03613-.34247.01142-.33881-.01142-.03027.005-.359.011-.34713-.00455-.3266-.02741-.31579-.04254-.29791-.05762-.28284-.07446-.26965-.08411-.24354-.09143-.22711-.09-.20947-.09827-.1936-.0946-.16649-.09556-.15258-.08826-.12976-.0896-.10108-.07312-.08508-.05756-.066-.05121-.04364-.03613-.03827-.03473-.02332-.03656-.01812-.02832-.03937-.0617-.05743-.07911-.06061-.07721-.08612-.10559-.09259-.10833-.102-.10236-.10321-.10425-.13782-.11566-.126-.09918-.14673-.09229-.16809-.09234-.1419-.06079-.17609-.05622-.15094-.043-.16913-.07086-.17871-.09369-.19574-.10876-.20947-.13165-.22119-.1554-.22663-.16595-.23822-.187-.2409-.19471-.24988-.21478-.25794-.22266-.25158-.23809-.26056-.24775-.25788-.25323-.07714-.08179-.24042.08179-.08606-.02875h-.01233l-.05212-.01373v-.00324l-.03669-.00317-.084-.00958h-.15366l-.09253.00958-.10687.02789-.1048.037-.06909.03613-.099.07361-.09094.0827-.1004.12342-.08722.149-.09.14447-.126.13208-.1297.09144-.13086.06579-.12549.04712-.12659.021-.1112.00781-.09565-.00464-.05908-.00317-.04681-.005h-.001l-.02551.005-.043.00781-.05274.01684-.03985.01465-.07074.03107-.01538.01147-.06861.06806-.0415.05029-.02979.06586-.02972.08819-.03619.16822-.09736.16272-.109.11377-.12067.08917-.12183.06079-.11584.05438-.11542.03614-.092.02648-.082.01276-.035.00824-.0213.00873-.04206.02234-.08191.04345-.09363.05439-.11218.06811-.13507.07953-.14465.08728-.15094.1001-.16809.11157-.16913.11835-.18512.12756-.186.1435-.1925.14581-.19678.15723-.18237.1618-.19519.17554-.19354.17871-.18677.186-.17072.1883-.16473.2052-.16168.202-.14411.21167-.141.21485-.12006.22027-.09472.223-.09143.22992-.06867.22034-.04455.24042-.0246.23492-.00262.2381.0224.23956.04571.2436.06915.22949.14783.21386.17761.21161.19776.202.22241.17877.22967.16364.25312.1499.26806.128.27008.12109.293.101.29413.09234.30841.0727.309.06988.31745.0567.31494.03931.31366.03381.32116.02332.30958.01739.3106.00733.30518.00177.2904-.00635.29035-.006.27112-.01825.26385-.01508.2403-.01788.22711-.02783.209-.02423.19672-.02332v.00409l.16071-.02331.14947-.02649.11963-.01831.083-.01184.06378-.02332.04571-.00415.26062-.04981.28455-.06945.30621-.08594.32868-.1001.34405-.11932.36267-.12525.37653-.14575.39459-.15546.40308-.1723.41485-.17547.42115-.18787.42865-.1897.435-.19653.43708-.2066.43725-.207.44184-.20343.434-.2116.43286-.20752.42382-.20612.417-.21075.56573-.27747.03064.033.06513-.033.116-.05206.13666-.06171.16431-.07861zm-7.31579-1.39544-.06214.00818-.04687.00549-.10638.0224-.12024.02014-.144.02966-.16638.03205-.1947.04022-.20319.03839-.21368.05347-.234.05072-.24628.0617-.25891.06586-.26269.07355-.2649.08093-.2771.07861-.278.09461-.2851.09692-.27551.1001-.27856.11377-.27173.11157-.26593.12659-.259.12524-.25312.13849-.23608.14258-.23187.14581-.21595.15174-.202.14032-.17658.11932-.15527.1051-.14044.10016-.12122.07129-.101.069-.08728.05988-.08185.04431-.05743.032-.05317.02972-.04791.02466-.07171.02332h-.08039a.22056.22056 0 0 1 -.12439-.02966l-.05749-.048-.01966-.03607-.02819-.04346-.00953-.03839-.00317-.00732v-.0055l.04944-.01275.05957-.0224.03827-.30719.0393.00824.08033.01281.0473.04065.0224-.01275.05157-.03522.08936-.05939.09674-.05853.12024-.08093v.00091l.13348-.08728.15149-.10742.17871-.12109.108-.07679-.56524-.28295.202-.40265.79187.39215.12708-.08594.25732-.15131.2649-.14215.27594-.13531.27606-.12244.285-.12341.28613-.11157.28821-.10968.29151-.0987.28814-.09234.28077-.0896.27447-.07862.27014-.0722.25952-.06629.25367-.06585.23449-.0553.22656-.05389.20307-.04071.19256-.03931.17286-.03058.15051-.03021.117-.02008.10523-.02014.08618-.016.04993-.00409.01495.12659.08081.31586z"/><path d="m48.08717 52.67884-.12653.05121-.12017.05207-.11383.05529-.11005.05713v.00782l-.11536.06262v-.00232l-.07239.048-.08612.06812-.025.02881.008.01922.0144.02832.04993.048.06866.048.07233.04016.08557.0343.12231.04114.09833.0238.12769.02649.116.02106.11377.01917v-.00325l.11591.01373.09839.00776.09417.00415.07013.00409.07019.00231h.2095l.06811-.00231.0882-.00409.1048-.00415.10962-.00776.12707-.01373v.00324l.12439-.01917.13306-.02106.13446-.02649.13769-.032.11493-.03607.11487-.04163.07654-.0393.06811-.04157.06275-.053.017-.02649v-.00646l-.07453-.03521-.07336-.0329-.10376-.02466-.13068-.02881-.11017-.02014-.13556-.01459-.13238-.01739-.118-.01142-.11383-.00457-.10639-.00409h-.08618l-.06549-.00641h-.05627l-.08081-.01923-.06116-.0393-.03082-.02558-.02985-.0274-.0415-.03754-.04249-.053-.03509-.053-.02075-.05529-.0271-.096v-.0539a.35327.35327 0 0 1 -.06116.02973l-.05206.021-.06232.01923-.08612.03107-.08618.03064-.10742.0448z"/><path d="m64.208 57.582-.043-.229-.068-.232-.087-.224-.106-.227-.114-.219-.136-.212-.144-.211-.163-.207-.167-.197-.179-.195-.185-.183-.185-.182-.193-.175-.193-.164-.193-.155-.191-.149-.184-.139-.184-.129-.174-.119-.167-.11-.15-.099-.145-.089-.136-.08-.114-.068-.091-.052-.081-.047-.042-.021-.022-.011-.037-.008-.081-.011-.092-.029-.109-.03-.12-.053-.122-.067-.116-.082-.117-.114-.039-.068v.03l-.13.008-.16.017-.156.029-.202.045v-.004l-.209.053-.231.062-.252.079-.267.077-.275.093-.297.098-.299.107-.31.116-.322.119-.328.119-.335.136-.343.131-.343.138-.348.14-.353.146-.349.145-.348.145-.349.145-.342.148-.345.144-.337.148-.327.145-.327.14-.313.137-.301.134-.289.132-.282.128-.266.117-.253.115-.234.107-.225.103-.195.087-.178.083-.162.075-.047.023.399.197.428.205.432.208.429.21.437.198.441.21.428.205.433.188.428.195.419.183.414.174.399.168.388.158.377.137.361.133.343.115.32.101.305.085.276.066.265.05.039.004.07.019.093.02.124.022.138.025.173.029.187.03v-.007l.212.029.232.027.244.025.261.019.27.02.287.014.29.004h.309l.303-.004.306-.019.32-.024.312-.037.31-.045.307-.061.306-.067.298-.088.286-.099.279-.118.265-.129.25-.145.241-.164.217-.185.204-.199.184-.223.154-.224.066-.22.043-.252.026-.238-.003-.239z"/><path d="m38.43525 40.97749-.07232.35107-.07337.35309-.06708.34345-.06591.334-.06494.32758-.06055.32544-.05951.31054-.057.29462-.05267.28717-.0531.27649-.04749.25214-.04406.23608-.03565.22015-.03833.19678-.03186.17755-.02868.1521-.0224.12982-.01746.09894-.00958.07544-.00965.05853-.01.02338-.00378.01386-.0069.03827-.01758.07452-.01745.08612-.0166.10529-.01062.14465-.00263.14245v.00538l.00263.15533.02124.19879h-.00525l.02868.182.05213.21484.07074.217.092.21906.117.234.1543.24462.13708.25733.1543.25311.1723.26569.18293.26593.19781.26477.21747.27124.22174.27014.23187.26807.23725.267.24725.25934.24512.26166.251.24493.25208.2381.25207.23084.24891.22119.24249.20849.235.1883.22968.17962.21808.165.20148.13623.19311.12751.183.09875.15674.08.107.0498.14044.03705.20416.06311.19782.08911.184.101.17657.1106.15686.12482.14948.12524.1308.12244.1159.12207.10639.12341.08715.10742.074.1001.06012.07861.04468.0658.0202.03113.00641.00866.05151.03608.07874.05853.09619.0658.12182.08276v.00317l.13245.07587v-.00458l.16473.09467.16126.0841.193.08954.21381.08911.23291.08.23926.0777.25848.06354.27594.05529.28888.03748.30145.02838.318.00549h.04206l.00378-.053h.66309l.00586.04755h.02075l.30737-.01147.29041-.02973.28076-.05206.26373-.063.23822-.07959.23084-.0882.20739-.09277.19153-.09784.18329-.10742v.00323l.15265-.09875.14258-.10327.12982-.09552.10193-.08728.08728-.07361.05762-.05713.054-.05353.02466-.02331.01416-.02008.01874-.016.02929-.02649.04932-.05445.08252-.06811.0882-.07447.10333-.09143.12433-.10327.141-.09875.1499-.1051.16272-.10242.17346-.09961.1872-.09827.1897-.08368.20269-.07995.19629-.05762.13873-.04114.11591-.04571.1618-.08313.19031-.10834.184-.11932.20636-.14582.21851-.16455.22552-.17554.23084-.19879.24292-.21484.24365-.2226.24176-.23266.24475-.24359.243-.25312.239-.25964.2384-.27008.23175-.26807.22028-.27118.21161-.27447.20208-.27014.18506-.27436.17438-.27093.15521-.26166.15106-.26794.14991-.24585.11608-.23285.08826-.218.07013-.22021.05-.20624.02972-.18616.018-.19891.00323-.16272-.00323-.14368-.01483-.13928-.016-.12122h.00549l-.016-.08081-.01715-.07129-.00733-.03509-.00549-.016-.00616-.02649-.00867-.05432-.01166-.0755-.016-.10321-.02539-.12763-.02875-.15838-.02563-.17444-.03811-.20127-.04163-.22016-.04248-.24035-.04455-.26062-.05213-.27118-.05438-.29248-.0553-.30316-.05627-.31049-.06073-.32977-.06262-.32441-.07135-.33929-.066-.35089-.07221-.352-.06695-.35425-.07245-.35632-.07752-.35846-.07238-.35089-.0766-.35633-.0777-.34985-.07544-.3446-.0788-.334-.07544-.33386-.07653-.317-.07453-.30957-.07977-.29456-.07129-.27758-.07654-.26166-.0722-.25208-.06928-.23187-.07129-.2052-.0711-.18933-.14057-.33826-.14807-.32226-.15356-.27973-.16065-.26062-.16479-.23071-.16388-.2074-.17548-.18512-.18194-.16693-.17755-.14569-.186-.13086-.18512-.11279-.192-.102-.18554-.083-.19263-.0777-.19452-.06909-.19836-.0617-.1908-.05317-.19379-.04144-.19567-.0415s-.23444-.07978-1.34382-.33081a16.02985 16.02985 0 0 0 -3.96441-.34668c-1.614.03607-3.546.29351-3.546.29351l-.19476.05-.18818.04468-.18988.03943-.19622.04144-.20417.03827-.20105.04352-.21057.04468v-.00519l-.21277.051-.20422.05v.00324l-.21375.0617-.21167.07019-.20941.07971-.20593.0926-.20264.1-.20361.11585-.19678.13507-.20154.14685-.184.16809-.18768.185-.17657.21057-.17493.234-.16809.25836-.15851.283-.15417.31482-.14142.34564-.06275.18408-.07452.20947-.06812.22235-.07116.251-.07874.26379-.0744.27655-.07983.29663-.07441.30634-.08239.31488-.07184.32971-.07764.3393-.07812.33386-.08033.35107-.0744.35413-.07556.351-.07342.35413zm2.51264 5.0542.0144-.31915.03607-.32758.03308-.32111.05152-.32336.05-.33081.06219-.319.06226-.31586.07171-.316.07453-.302.07977-.29571.07556-.28821.07862-.27753.07763-.26385.082-.25629.07654-.22968.06958-.22125.06873-.2074.06537-.18725.06433-.167.04889-.13721h-.001l.04468-.12225.03826-.09681h-.00317l.0282-.082.0271-.04889.083.03827.2713.03192.07336-.01269.01483.05853.00421.0755.01075.10742.0133.1319.01117.15412.017.17346.01483.19561.02228.21058.01965.23291.01862.24786.0166.26489.02173.27112.02136.28192.0202.29456.01483.29779.02027.30737.01166.30957.016.31061.01062.31366.00842.31274.00964.30622.00422.30743v.59143l-.00959.2818-.00787.27008-.01544.25849-.016.24566-.02344.2309-.0329.21478-.032.1936-.04572.18189-.04791.16272-.06378.14349-.08191.12445-.05048.05854-.11059.2254.1452.19659.22546.29254.23243.27533.24292.25324.2362.2467.23926.22547.23291.218.23138.19037.22388.18305.21271.16913.20306.15393.18836.13623.1723.12658.1499.10877.13928.09875.12079.08271.08564.06951.116.08912.06275.0393.1.04071.09564.02008.11383.0105h.10108l.15838-.01459v.00409l.16913-.02789.19355-.0329.234-.04431.26373-.04895.2138-.03516.19251-.02014.17017-.01184.15527.00226.12121.01691.11963.02105.108.04065.07977.04889.0899.07135.04352.07862.03351.07129.024.08593v.0553l.01861-.02331.09461-.069.09839-.0512.11962-.05115.13941-.03931.16278-.03705.18292-.032.19623-.02881.25568-.04431.22979-.03021.21381-.00958h.18726l.17553.00958.15454.027.13135.02514.11707.0279.10577.0274.07819.0238.05853.01142.03558.00867.01557-.016.07953-.08319.11175-.123.133-.12335.149-.14582.16681-.16272.18146-.17871.1936-.19488.20246-.21045.21161-.232.21484-.25512.215-.268.21966-.29895.21894-.31055.10693-.16912-.05048-.05317-.08026-.12445-.064-.14666-.04572-.15186-.04455-.1745-.03565-.19678-.03521-.21167-.0268-.22319-.02149-.25-.01422-.25629-.0155-.268-.00964-.28289-.00959-.29254-.00091-.30317v-.619l.00091-.32007.00959-.31909.00964-.32447.00958-.31683.01282-.318.01276-.31281.01123-.3158.01733-.30316.01441-.28821.01763-.28613.01758-.27649.01532-.26593.01483-.24249.01715-.22974.01166-.21368.016-.19574.01325-.166.01007-.15424.0119-.12549.00525-.10522.00641-.07557.00409-.04144h.02356l.34985-.04584.06378-.02972.00959.02344.016.03607.02539.07135.04046.10419.04407.12341.05164.14777.06176.17547.06372.1872.067.217.0752.22766.07495.24988.0766.25848.07745.27332.08093.28076.07654.29791.0777.30841.07544.31586.06811.31378.06531.32642.06128.32983.05206.33069.05011.32757.03491.32868.03315.32654.016.3244.00842.3457-.15863.53064-.16907.47229-.18286.44452-.19787.42871-.2085.39539-.21478.37536-.22559.34784-.23077.32758-.2265.3042-.2265.285-.22327.26373-.21869.23926-.208.22113-.20294.20252-.18146.1773-.16638.16089-.149.14673-.125.12115-.1015.10651-.08294.0932-.07013.07129-.10584.0672-.11658.01691h-.09342l-.09-.01691-.08459-.01825-.0882-.02747-.08728-.02465-.10425-.021-.11584-.02563-.11176-.016-.15838-.01281h-.14307l-.18719.01281-.22657.02564-.2243.04016-.20435.02655-.16748.0343-.14032.02649-.09259.032-.09253.0384-.03509.01922.03082.005h.09l.11218.00866.11487.00415.13086.0105.14349.016.14148.01923.14569.02557.13721.032.13666.03521.12506.05072.119.05664.11541.07868.12183.15082-.00641.22351-.05939.15222-.08526.12518-.1128.10559-.13189.07636-.13288.06811-.14361.048-.14032.0448-.15.037-.15417.02741-.14465.02057-.14045.02423-.13507.0119-.12762.00818-.10846.00323-.08453.0055-.074.00409h-.25525l-.07275-.00409-.06769-.0055-.09357-.00323-.12011-.00818-.12342-.0119-.13141-.02423-.13025-.02057-.13983-.03064-.13873-.03381-.134-.0448-.134-.05121-.1314-.069-.10584-.08-.10626-.10742-.08093-.122-.04676-.15863v-.21069l.10425-.13715.0882-.08588.10321-.0791.117-.07635.12067-.07038.12762-.06671.12824-.0672.136-.05621.12561-.0553.12226-.04895.11328-.04571.06122-.02375-.09473-.00592-.09723-.00458-.13782.0105-.18182.02149v-.0055l-.19568.03431-.25689.048-.22925.04431-.20624.03113-.19312.032-.17175.01556h-.17016l-.1532-.01556-.15735-.032-.14832-.06629-.14422-.07861-.13233-.10193-.07666-.05945-.11108-.08087-.13941-.10235-.15472-.11158-.17389-.12658-.18878-.13715-.20844-.15948-.22387-.17237-.22876-.1914-.2403-.2-.2426-.22028-.24683-.23712-.25525-.251-.24456-.27124-.242-.29138-.24084-.301-.00507-.00634-.00775.01587-.4521-.6846-.218-.37336-.2063-.39776-.17713-.41272-.16748-.42963-.14471-.47974z"/></g></g></svg>